grf
version=1
nRows=6
nColumns=37
inDegrees=no
endheader
time	ground_force_1_vx	ground_force_1_vy	ground_force_1_vz	ground_force_1_px	ground_force_1_py	ground_force_1_pz	ground_moment_1_mx	ground_moment_1_my	ground_moment_1_mz	ground_force_2_vx	ground_force_2_vy	ground_force_2_vz	ground_force_2_px	ground_force_2_py	ground_force_2_pz	ground_moment_2_mx	ground_moment_2_my	ground_moment_2_mz	ground_force_3_vx	ground_force_3_vy	ground_force_3_vz	ground_force_3_px	ground_force_3_py	ground_force_3_pz	ground_moment_3_mx	ground_moment_3_my	ground_moment_3_mz	ground_force_4_vx	ground_force_4_vy	ground_force_4_vz	ground_force_4_px	ground_force_4_py	ground_force_4_pz	ground_moment_4_mx	ground_moment_4_my	ground_moment_4_mz
      2.04000000	      0.00000000	     -0.00000000	      0.00000000	      0.00000000	      0.00000000	      0.00000000	      0.00000000	      0.00000000	      0.00000000	     -8.43906021	     30.12607574	   -385.81478882	   -257.57388637	  -1071.54847462	      0.00000000	      0.00000000	      0.00000000	   9102.27721189	      7.57059610	    -28.59182233	   -395.96026611	   -263.88887864	   -707.12827293	      0.00000000	      0.00000000	      0.00000000	  -7305.76630036	      0.00000000	     -0.00000000	      0.00000000	      0.00000000	      0.00000000	      0.00000000	      0.00000000	      0.00000000	      0.00000000
      2.05000000	      0.00000000	     -0.00000000	      0.00000000	      0.00000000	      0.00000000	      0.00000000	      0.00000000	      0.00000000	      0.00000000	     -8.74263000	     29.96550941	   -384.98953247	   -256.80637434	  -1071.03388574	      0.00000000	      0.00000000	      0.00000000	   9014.48030574	      7.91933434	    -28.09783433	   -394.56414795	   -263.45868827	   -706.95154761	      0.00000000	      0.00000000	     -0.00000000	  -7251.03239781	      0.00000000	     -0.00000000	      0.00000000	      0.00000000	      0.00000000	      0.00000000	      0.00000000	      0.00000000	      0.00000000
      2.06000000	      0.00000000	     -0.00000000	      0.00000000	      0.00000000	      0.00000000	      0.00000000	      0.00000000	      0.00000000	      0.00000000	     -8.38578796	     29.59733391	   -384.51724243	   -256.33330368	  -1071.91628630	      0.00000000	      0.00000000	      0.00000000	   9140.77172818	      8.65226694	    -27.76239852	   -393.68014526	   -263.08685912	   -706.56286102	      0.00000000	      0.00000000	      0.00000000	  -7186.10283646	      0.00000000	     -0.00000000	      0.00000000	      0.00000000	      0.00000000	      0.00000000	      0.00000000	      0.00000000	      0.00000000
      2.07000000	      0.00000000	     -0.00000000	      0.00000000	      0.00000000	      0.00000000	      0.00000000	      0.00000000	      0.00000000	      0.00000000	     -8.71967506	     29.77573395	   -383.69326782	   -255.97558646	  -1071.45480500	      0.00000000	      0.00000000	      0.00000000	   9163.40512636	      8.50408406	    -27.81528357	   -393.81915283	   -262.42096008	   -706.32365676	      0.00000000	      0.00000000	      0.00000000	  -7200.82314776	      0.00000000	     -0.00000000	      0.00000000	      0.00000000	      0.00000000	      0.00000000	      0.00000000	      0.00000000	      0.00000000
      2.08000000	      0.00000000	     -0.00000000	      0.00000000	      0.00000000	      0.00000000	      0.00000000	      0.00000000	      0.00000000	      0.00000000	     -9.05170822	     29.64886665	   -381.22024536	   -254.88113546	  -1070.63676661	      0.00000000	      0.00000000	      0.00000000	   9174.91784363	      7.83538909	    -27.80897590	   -393.25823975	   -261.44664938	   -707.11304028	      0.00000000	      0.00000000	     -0.00000000	  -7134.08237176	      0.00000000	     -0.00000000	      0.00000000	      0.00000000	      0.00000000	      0.00000000	      0.00000000	      0.00000000	      0.00000000
      2.09000000	      0.00000000	     -0.00000000	      0.00000000	      0.00000000	      0.00000000	      0.00000000	      0.00000000	      0.00000000	      0.00000000	     -9.97217369	     29.86514664	   -380.15979004	   -253.56652877	  -1070.41718329	      0.00000000	      0.00000000	      0.00000000	   9213.91765421	      8.37998906	    -28.25661351	   -394.00509644	   -261.02116582	   -706.76787894	      0.00000000	      0.00000000	     -0.00000000	  -7134.77286744	      0.00000000	     -0.00000000	      0.00000000	      0.00000000	      0.00000000	      0.00000000	      0.00000000	      0.00000000	      0.00000000
